<svg width="24" height="24" viewBox="0 0 24 24" fill="none" xmlns="http://www.w3.org/2000/svg">
<g id="person_pin_24px">
<path id="icon/maps/person_pin_24px" fill-rule="evenodd" clip-rule="evenodd" d="M5 1.5H19C20.1 1.5 21 2.4 21 3.5V17.5C21 18.6 20.1 19.5 19 19.5H15L12 22.5L9 19.5H5C3.89 19.5 3 18.6 3 17.5V3.5C3 2.4 3.89 1.5 5 1.5ZM14.17 17.5H19V3.5H5V17.5H9.83L10.41 18.08L12 19.67L13.58 18.09L14.17 17.5ZM12 10.5C13.65 10.5 15 9.15 15 7.5C15 5.85 13.65 4.5 12 4.5C10.35 4.5 9 5.85 9 7.5C9 9.15 10.35 10.5 12 10.5ZM13 7.5C13 6.95 12.55 6.5 12 6.5C11.45 6.5 11 6.95 11 7.5C11 8.05 11.45 8.5 12 8.5C12.55 8.5 13 8.05 13 7.5ZM18 15.08C18 12.58 14.03 11.5 12 11.5C9.97 11.5 6 12.58 6 15.08V16.5H18V15.08ZM12 13.5C10.71 13.5 9.22 13.99 8.48 14.5H15.52C14.78 13.99 13.29 13.5 12 13.5Z" fill="#50509F"/>
</g>
</svg>
